<?xml version="1.0" standalone="no"?><!DOCTYPE svg PUBLIC "-//W3C//DTD SVG 1.1//EN" "http://www.w3.org/Graphics/SVG/1.1/DTD/svg11.dtd"><svg t="1783081503671" class="icon" viewBox="0 0 1024 1024" version="1.1" xmlns="http://www.w3.org/2000/svg" p-id="6354" xmlns:xlink="http://www.w3.org/1999/xlink" width="200" height="200"><path d="M554.666667 0h-85.333334v170.666667h85.333334V0zM0 469.333333v85.333334h170.666667v-85.333334H0z m1024 0v85.333334h-170.666667v-85.333334h170.666667zM554.666667 1024h-85.333334v-170.666667h85.333334v170.666667zM341.333333 256h341.333334v85.333333H341.333333V256zM256 341.333333h85.333333v341.333334H256V341.333333z m85.333333 426.666667v-85.333333h341.333334v85.333333H341.333333z m426.666667-85.333333h-85.333333V341.333333h85.333333v341.333334z m85.333333-597.333334h85.333334v85.333334h-85.333334V85.333333z m0 85.333334v85.333333h-85.333333V170.666667h85.333333z m85.333334 768h-85.333334v-85.333334h85.333334v85.333334z m-85.333334-85.333334h-85.333333v-85.333333h85.333333v85.333333zM170.666667 85.333333H85.333333v85.333334h85.333334v85.333333h85.333333V170.666667H170.666667V85.333333zM85.333333 938.666667h85.333334v-85.333334h85.333333v-85.333333H170.666667v85.333333H85.333333v85.333334z" p-id="6355"></path></svg>