<?xml version="1.0" standalone="no"?><!DOCTYPE svg PUBLIC "-//W3C//DTD SVG 1.1//EN" "http://www.w3.org/Graphics/SVG/1.1/DTD/svg11.dtd"><svg t="1783099583767" class="icon" viewBox="0 0 1024 1024" version="1.1" xmlns="http://www.w3.org/2000/svg" p-id="7002" xmlns:xlink="http://www.w3.org/1999/xlink" width="200" height="200"><path d="M469.333333 170.666667h85.333334v85.333333h-85.333334V170.666667zM384 341.333333V256h85.333333v85.333333H384z m0 0v85.333334H298.666667V341.333333h85.333333z m256 0h-85.333333V256h85.333333v85.333333z m0 0h85.333333v85.333334h-85.333333V341.333333z m-256 341.333334H298.666667v-85.333334h85.333333v85.333334z m85.333333 85.333333H384v-85.333333h85.333333v85.333333z m85.333334 0v85.333333h-85.333334v-85.333333h85.333334z m85.333333-85.333333h-85.333333v85.333333h85.333333v-85.333333z m0 0v-85.333334h85.333333v85.333334h-85.333333z" p-id="7003"></path></svg>