<?xml version="1.0" standalone="no"?><!DOCTYPE svg PUBLIC "-//W3C//DTD SVG 1.1//EN" "http://www.w3.org/Graphics/SVG/1.1/DTD/svg11.dtd"><svg t="1779596561495" class="icon" viewBox="0 0 1024 1024" version="1.1" xmlns="http://www.w3.org/2000/svg" p-id="3822" xmlns:xlink="http://www.w3.org/1999/xlink" width="200" height="200"><path d="M435.712 880.128c-40.448-78.848-72.192-144.384-71.168-145.408s6.656-1.024 11.776 0.512c7.168 2.048 26.624 34.816 62.976 105.472 50.176 98.816 52.224 101.888 49.664 75.264-2.048-15.36-6.144-55.808-9.728-90.112-5.632-62.464-5.632-62.976 4.608-59.392 5.632 1.536 35.328 10.752 65.536 19.968 30.72 9.216 56.832 17.408 57.856 18.432 4.096 4.608-86.528 215.552-93.696 217.6-2.048 1.024-37.376-62.976-77.824-142.336zM1000.96 892.928c-22.528-7.168-185.856-56.32-337.92-101.888-162.816-49.152-181.76-54.784-181.76-57.344 0-1.024 25.088-35.84 55.808-77.312 31.232-41.472 66.56-89.088 78.848-105.984 87.552-118.784 134.656-182.784 177.664-240.64 126.976-171.008 199.168-269.824 186.368-256-7.168 8.704-22.016 24.576-32.256 35.84s-121.344 133.632-246.272 271.36c-124.928 138.24-236.032 260.096-246.272 271.36-10.752 11.264-30.208 32.768-44.032 48.128l-25.6 27.648-192.512-63.488C87.04 609.792 0 579.584 0 578.048c0-2.048 21.504-15.36 47.616-30.208 56.32-32.256 359.936-202.752 446.464-250.88 33.792-18.944 69.632-38.912 79.36-44.544 40.448-23.04 181.248-102.4 245.76-138.752 37.888-20.992 98.816-55.296 135.168-76.288 36.352-20.48 67.072-36.352 68.096-35.84 1.024 1.024 1.024 203.776 0.512 450.048l-1.536 448-20.48-6.656z" fill="#0099FF" p-id="3823"></path></svg>